<svg fill="none" height="304" viewBox="0 0 324 304" width="324" xmlns="http://www.w3.org/2000/svg" class="css-1kzq5ms"><g clip-path="url(#clip0_6964_4993)"><path d="M253.631 106.447c0 50.497-41.041 91.435-91.67 91.435-50.629 0-91.67-40.938-91.67-91.435s41.041-91.435 91.67-91.435c50.629 0 91.67 40.938 91.67 91.435z" stroke="#000" stroke-miterlimit="10" stroke-width="0.66"></path><path d="M161.96 189.035c45.729 0 82.8-36.976 82.8-82.588 0-45.613-37.071-82.589-82.8-82.589s-82.8 36.976-82.8 82.589c0 45.612 37.071 82.588 82.8 82.588z" fill="#238758" opacity="0.1"></path><path d="M149.081 36.706c7.114 0 12.88-2.876 12.88-6.424 0-3.548-5.766-6.424-12.88-6.424-7.113 0-12.88 2.876-12.88 6.424 0 3.548 5.767 6.424 12.88 6.424z" fill="#fff"></path><path d="M237.401 106.863c-.003 19.039-7.349 37.361-20.541 51.236s-31.239 22.26-50.467 23.449c-19.228 1.188-38.191-4.909-53.03-17.052-14.839-12.142-24.437-29.417-26.841-48.307 3.811 8.229 27.043 50.845 97.006 39.315 63.301-10.45 47.046-71.316 39.052-93.104 9.647 12.862 14.844 28.453 14.821 44.463z" fill="#005F32" opacity="0.1"></path><ellipse cx="161.961" cy="106.447" rx="92" ry="18.353" stroke="#000" stroke-dasharray="0.66 4" stroke-width="0.66"></ellipse><path d="M149.887 106.977l8.064-22.098a.1.1 0 00-.06-.128l-22.154-8.043a.101.101 0 00-.129.06l-8.063 22.098a.1.1 0 00.06.128l22.154 8.043a.1.1 0 00.128-.06z" fill="#00C805" stroke="#000" stroke-width="0.66"></path><path d="M122.059 112.565l8.052-22.065a.1.1 0 01.074-.064l27.625-5.615a.1.1 0 01.114.132l-8.052 22.066a.102.102 0 01-.074.064l-27.625 5.614a.1.1 0 01-.114-.132z" fill="#00C805" stroke="#000" stroke-width="0.66"></path><path d="M122.059 112.565l8.052-22.065a.1.1 0 01.074-.064l27.625-5.615a.1.1 0 01.114.132l-8.052 22.066a.102.102 0 01-.074.064l-27.625 5.614a.1.1 0 01-.114-.132z" fill="#000" opacity="0.2"></path><path d="M135.616 76.68l-27.488 5.606c-.099.02-.109.157-.014.192l38.525 13.986a.1.1 0 00.054.004l27.488-5.606c.099-.02.109-.157.014-.192L135.67 76.684a.1.1 0 00-.054-.004z" fill="#00C805" stroke="#000" stroke-width="0.66"></path><path d="M135.616 76.68l-27.488 5.606c-.099.02-.109.157-.014.192l38.525 13.986a.1.1 0 00.054.004l27.488-5.606c.099-.02.109-.157.014-.192L135.67 76.684a.1.1 0 00-.054-.004z" fill="#fff" opacity="0.1"></path><path d="M138.568 118.665l8.064-22.097a.1.1 0 00-.06-.129l-38.697-14.048a.1.1 0 00-.128.06l-8.064 22.098a.1.1 0 00.06.128l38.697 14.048a.1.1 0 00.128-.06z" fill="#00C805" stroke="#000" stroke-width="0.66"></path><path d="M144.403 120.674l8.052-22.065a.1.1 0 01.074-.064l27.625-5.614a.1.1 0 01.114.132l-8.052 22.065a.1.1 0 01-.074.064l-27.625 5.614a.1.1 0 01-.114-.132z" fill="#C3F53C" stroke="#000" stroke-width="0.66"></path><path d="M144.403 120.674l8.052-22.065a.1.1 0 01.074-.064l27.625-5.614a.1.1 0 01.114.132l-8.052 22.065a.1.1 0 01-.074.064l-27.625 5.614a.1.1 0 01-.114-.132z" fill="#000" opacity="0.2"></path><path d="M174.502 90.795L147.015 96.4c-.099.02-.109.157-.014.192l5.441 1.975a.1.1 0 00.054.004l27.487-5.606c.099-.02.109-.157.014-.192l-5.44-1.975a.103.103 0 00-.055-.004z" fill="#C3F53C" stroke="#000" stroke-width="0.66"></path><path d="M174.502 90.795L147.015 96.4c-.099.02-.109.157-.014.192l5.441 1.975a.1.1 0 00.054.004l27.487-5.606c.099-.02.109-.157.014-.192l-5.44-1.975a.103.103 0 00-.055-.004z" fill="#fff" opacity="0.1"></path><path d="M144.369 120.769l8.063-22.098a.1.1 0 00-.059-.128l-5.613-2.037a.1.1 0 00-.128.06l-8.064 22.097a.1.1 0 00.06.128l5.612 2.038a.1.1 0 00.129-.06z" fill="#C3F53C" stroke="#000" stroke-width="0.66"></path><path d="M194.573 123.198l8.064-22.098a.1.1 0 00-.06-.128l-22.155-8.043a.1.1 0 00-.128.06l-8.064 22.098a.1.1 0 00.06.128l22.155 8.043a.1.1 0 00.128-.06z" fill="#005F32" stroke="#000" stroke-width="0.66"></path><path d="M166.745 128.786l8.052-22.066a.099.099 0 01.074-.063l27.625-5.615a.1.1 0 01.114.132l-8.052 22.065a.1.1 0 01-.074.064l-27.625 5.615a.1.1 0 01-.114-.132z" fill="#005F32" stroke="#000" stroke-width="0.66"></path><path d="M166.745 128.786l8.052-22.066a.099.099 0 01.074-.063l27.625-5.615a.1.1 0 01.114.132l-8.052 22.065a.1.1 0 01-.074.064l-27.625 5.615a.1.1 0 01-.114-.132z" fill="#000" opacity="0.2"></path><path d="M180.301 92.9l-27.487 5.607c-.099.02-.109.157-.014.192l21.983 7.98a.09.09 0 00.054.004l27.487-5.606c.099-.02.109-.157.014-.192l-21.982-7.98a.103.103 0 00-.055-.004z" fill="#005F32" stroke="#000" stroke-width="0.66"></path><path d="M180.301 92.9l-27.487 5.607c-.099.02-.109.157-.014.192l21.983 7.98a.09.09 0 00.054.004l27.487-5.606c.099-.02.109-.157.014-.192l-21.982-7.98a.103.103 0 00-.055-.004z" fill="#fff" opacity="0.1"></path><path d="M166.712 128.88l8.063-22.097a.1.1 0 00-.06-.128l-22.154-8.043a.1.1 0 00-.128.06l-8.064 22.097a.1.1 0 00.06.128l22.154 8.043a.1.1 0 00.129-.06z" fill="#005F32" stroke="#000" stroke-width="0.66"></path><path d="M216.915 131.309l8.063-22.097a.1.1 0 00-.059-.129l-22.155-8.043a.1.1 0 00-.128.06l-8.064 22.098a.1.1 0 00.06.128l22.155 8.043a.1.1 0 00.128-.06z" fill="#7EE863" stroke="#000" stroke-width="0.66"></path><path d="M189.087 136.897l8.051-22.065a.102.102 0 01.075-.064l27.625-5.615a.1.1 0 01.113.132l-8.051 22.066a.102.102 0 01-.074.064l-27.625 5.614a.1.1 0 01-.114-.132z" fill="#7EE863" stroke="#000" stroke-width="0.66"></path><path d="M189.087 136.897l8.051-22.065a.102.102 0 01.075-.064l27.625-5.615a.1.1 0 01.113.132l-8.051 22.066a.102.102 0 01-.074.064l-27.625 5.614a.1.1 0 01-.114-.132z" fill="#000" opacity="0.2"></path><path d="M192.116 97.19l-27.488 5.606c-.099.02-.109.158-.014.192l32.51 11.802a.09.09 0 00.054.004l27.487-5.605c.099-.021.11-.158.015-.192l-32.51-11.803a.1.1 0 00-.054-.004z" fill="#7EE863" stroke="#000" stroke-width="0.66"></path><path d="M192.116 97.19l-27.488 5.606c-.099.02-.109.158-.014.192l32.51 11.802a.09.09 0 00.054.004l27.487-5.605c.099-.021.11-.158.015-.192l-32.51-11.803a.1.1 0 00-.054-.004z" fill="#fff" opacity="0.1"></path><path d="M189.053 136.992l8.063-22.098a.1.1 0 00-.059-.128l-32.682-11.865a.1.1 0 00-.128.06l-8.064 22.098a.1.1 0 00.06.128l32.682 11.865a.1.1 0 00.128-.06z" fill="#7EE863" stroke="#000" stroke-width="0.66"></path><path d="M253.961 106.447c0 10.136-41.19 18.353-92 18.353s-92-8.217-92-18.353" stroke="#000" stroke-width="0.66"></path></g><path d="M235.146 249.861c0 10.031-32.766 18.163-73.186 18.163-40.42 0-73.187-8.132-73.187-18.163 0-10.032 32.767-18.164 73.187-18.164 40.42 0 73.186 8.132 73.186 18.164z" fill="#238758" opacity="0.1"></path><path d="M16.518 214.765h6.512M28.611 214.765h258.324M290.037 214.765h17.366" stroke="#000" stroke-width="0.33"></path><path d="M107.379 239.794l13.211-23.859 14.854 5.234 67.543-4.957 13.831 23.582-4.373 5.141-19.32 3.787-9.52 3.448-21.894-1.57-10.42 1.57-19.63-2.494-9.831-1.57-13.335-6.28-1.116-2.032z" fill="#DDEBD6" stroke="#000" stroke-linecap="round" stroke-linejoin="round" stroke-miterlimit="10" stroke-width="0.33"></path><path d="M111.349 237.854s-1.55-.8-1.488-2.524l-2.481 4.464s-.713 2.801.899 4.248l-1.054 2.094s1.426 4.033 16.653 7.019l2.915-2.278s4.838.739 6.388.923l-.775 2.74s10.513 1.971 22.39 1.94l1.489-2.956s8 .216 10.791-.061l1.582 3.263s10.823-.369 22.421-2.001l-.899-2.801s2.791-.308 6.419-1.047l3.07 2.37s11.94-2.155 17.149-6.865l-1.085-2.186s1.737-1.046 1.085-4.402l-3.349-5.726s1.024 2.34-1.023 3.756l1.178 2.247s-3.287 3.725-17.056 5.911l-2.605-2.124s-2.14.369-6.202.923l.837 2.586s-12.683 1.293-20.777 1.447l-1.458-2.586s-2.667 0-9.396.062l-1.21 2.493s-8.869-.154-21.242-1.6l.775-2.586s-.372 0-5.892-.678l-2.512 2.186s-13.49-2.186-16.622-5.911l1.085-2.34z" fill="#005F32"></path><path d="M111.349 237.854s-1.55-.8-1.488-2.524l-2.481 4.464s-.713 2.801.899 4.248l-1.054 2.094s1.426 4.033 16.653 7.019l2.915-2.278s4.838.739 6.388.923l-.775 2.74s10.513 1.971 22.39 1.94l1.489-2.956s8 .216 10.791-.061l1.582 3.263s10.823-.369 22.421-2.001l-.899-2.801s2.791-.308 6.419-1.047l3.07 2.37s11.94-2.155 17.149-6.865l-1.085-2.186s1.737-1.046 1.085-4.402l-3.349-5.726s1.024 2.34-1.023 3.756l1.178 2.247s-3.287 3.725-17.056 5.911l-2.605-2.124s-2.14.369-6.202.923l.837 2.586s-12.683 1.293-20.777 1.447l-1.458-2.586s-2.667 0-9.396.062l-1.21 2.493s-8.869-.154-21.242-1.6l.775-2.586s-.372 0-5.892-.678l-2.512 2.186s-13.49-2.186-16.622-5.911l1.085-2.34z" fill="#fff" fill-opacity="0.2"></path><path d="M111.349 237.854s-1.55-.8-1.488-2.524l-2.481 4.464s-.713 2.801.899 4.248l-1.054 2.094s1.426 4.033 16.653 7.019l2.915-2.278s4.838.739 6.388.923l-.775 2.74s10.513 1.971 22.39 1.94l1.489-2.956s8 .216 10.791-.061l1.582 3.263s10.823-.369 22.421-2.001l-.899-2.801s2.791-.308 6.419-1.047l3.07 2.37s11.94-2.155 17.149-6.865l-1.085-2.186s1.737-1.046 1.085-4.402l-3.349-5.726s1.024 2.34-1.023 3.756l1.178 2.247s-3.287 3.725-17.056 5.911l-2.605-2.124s-2.14.369-6.202.923l.837 2.586s-12.683 1.293-20.777 1.447l-1.458-2.586s-2.667 0-9.396.062l-1.21 2.493s-8.869-.154-21.242-1.6l.775-2.586s-.372 0-5.892-.678l-2.512 2.186s-13.49-2.186-16.622-5.911l1.085-2.34zM121.304 218.521l-13.025 25.521" stroke="#000" stroke-linecap="round" stroke-linejoin="round" stroke-miterlimit="10" stroke-width="0.33"></path><path d="M123.877 253.155l12.963-30.416-10.048 28.138-2.915 2.278zM133.182 251.8l8.404-28.507M154.797 256.48l1.488-2.956 2.946-29.308-4.434 32.264zM168.658 256.726l-4.094-32.51 2.512 29.247 1.582 3.263zM191.079 254.725l-10.296-31.34M199.669 253.278l-13.087-30.539 10.017 28.138 3.07 2.401zM216.818 246.413l-14.699-27.892" stroke="#000" stroke-linecap="round" stroke-linejoin="round" stroke-miterlimit="10" stroke-width="0.33"></path><path d="M183.512 243.303c.428 0 .775-.303.775-.677 0-.374-.347-.677-.775-.677-.429 0-.776.303-.776.677 0 .374.347.677.776.677z" fill="#005F32"></path><path d="M183.512 243.303c.428 0 .775-.303.775-.677 0-.374-.347-.677-.775-.677-.429 0-.776.303-.776.677 0 .374.347.677.776.677z" fill="#fff" fill-opacity="0.2"></path><path d="M183.512 243.303c.428 0 .775-.303.775-.677 0-.374-.347-.677-.775-.677-.429 0-.776.303-.776.677 0 .374.347.677.776.677z" stroke="#000" stroke-linecap="round" stroke-linejoin="round" stroke-miterlimit="10" stroke-width="0.33"></path><path d="M179.201 242.626s2.078-.215 2.481-.308c0 0 .124.524.093.77 0 0-1.488.339-2.481.215l-.093-.677z" fill="#005F32"></path><path d="M179.201 242.626s2.078-.215 2.481-.308c0 0 .124.524.093.77 0 0-1.488.339-2.481.215l-.093-.677z" fill="#fff" fill-opacity="0.2"></path><path d="M179.201 242.626s2.078-.215 2.481-.308c0 0 .124.524.093.77 0 0-1.488.339-2.481.215l-.093-.677z" stroke="#000" stroke-linecap="round" stroke-linejoin="round" stroke-miterlimit="10" stroke-width="0.33"></path><path d="M184.101 245.643c.429 0 .776-.303.776-.677 0-.374-.347-.677-.776-.677-.428 0-.775.303-.775.677 0 .374.347.677.775.677z" fill="#005F32"></path><path d="M184.101 245.643c.429 0 .776-.303.776-.677 0-.374-.347-.677-.776-.677-.428 0-.775.303-.775.677 0 .374.347.677.775.677z" fill="#fff" fill-opacity="0.2"></path><path d="M184.101 245.643c.429 0 .776-.303.776-.677 0-.374-.347-.677-.776-.677-.428 0-.775.303-.775.677 0 .374.347.677.775.677z" stroke="#000" stroke-linecap="round" stroke-linejoin="round" stroke-miterlimit="10" stroke-width="0.33"></path><path d="M179.76 244.966s2.078-.216 2.481-.308c0 0 .124.523.093.769 0 0-1.489.339-2.481.216l-.093-.677z" fill="#005F32"></path><path d="M179.76 244.966s2.078-.216 2.481-.308c0 0 .124.523.093.769 0 0-1.489.339-2.481.216l-.093-.677z" fill="#fff" fill-opacity="0.2"></path><path d="M179.76 244.966s2.078-.216 2.481-.308c0 0 .124.523.093.769 0 0-1.489.339-2.481.216l-.093-.677z" stroke="#000" stroke-linecap="round" stroke-linejoin="round" stroke-miterlimit="10" stroke-width="0.33"></path><path d="M167.635 231.912l1.241 7.143s1.829 1.077 7.225.431c5.396-.647 5.52-1.817 5.52-2.155 0 0-1.364-5.018-2.543-7.143 0 0-7.008.524-10.575.524 0 .031-1.023.308-.868 1.2z" fill="#FFE600" stroke="#231F20" stroke-linecap="round" stroke-linejoin="round" stroke-miterlimit="10" stroke-width="0.33"></path><path d="M168.162 234.922s.411-1.091 1.358-1.228c.947-.136 1.737 1.774 2.495 1.228s1.421-1.603 2.21-.58c.79 1.024 1.579 1.842 2.368-.273.79-2.149 1.264-2.524 1.864-1.569.6.955 1.2 1.331 1.799.41M168.566 237.238s7.536.431 12.622-1.385" stroke="#000" stroke-linecap="round" stroke-linejoin="round" stroke-miterlimit="10" stroke-width="0.33"></path><path d="M179.078 230.219s.806-.061 1.178-.184c.372-.124.775.153.899.523l2.512 7.727s.403 1.262-.403 1.601c0 0-8.187 1.416-12.993 1.108 0 0-.869.031-1.179-.523l-.217-1.416s1.985 1.108 7.226.431c0 0 5.334-.431 5.52-2.155 0 .031-1.086-4.31-2.543-7.112z" fill="#E1EBDC"></path><path d="M179.078 230.219s.806-.061 1.178-.184c.372-.124.775.153.899.523l2.512 7.727s.403 1.262-.403 1.601c0 0-8.187 1.416-12.993 1.108 0 0-.869.031-1.179-.523l-.217-1.416s1.985 1.108 7.226.431c0 0 5.334-.431 5.52-2.155 0 .031-1.086-4.31-2.543-7.112z" fill="#005F32" fill-opacity="0.1"></path><path d="M179.078 230.219s.806-.061 1.178-.184c.372-.124.775.153.899.523l2.512 7.727s.403 1.262-.403 1.601c0 0-8.187 1.416-12.993 1.108 0 0-.869.031-1.179-.523l-.217-1.416s1.985 1.108 7.226.431c0 0 5.334-.431 5.52-2.155 0 .031-1.086-4.31-2.543-7.112z" stroke="#231F20" stroke-linecap="round" stroke-linejoin="round" stroke-miterlimit="10" stroke-width="0.33"></path><path d="M161.712 224.185c22.882 0 41.431-3.28 41.431-7.327 0-4.046-18.549-7.327-41.431-7.327-22.881 0-41.431 3.281-41.431 7.327 0 4.047 18.55 7.327 41.431 7.327z" fill="#E1EBDC"></path><path d="M161.712 224.185c22.882 0 41.431-3.28 41.431-7.327 0-4.046-18.549-7.327-41.431-7.327-22.881 0-41.431 3.281-41.431 7.327 0 4.047 18.55 7.327 41.431 7.327z" fill="#005F32" fill-opacity="0.1"></path><path d="M161.712 224.185c22.882 0 41.431-3.28 41.431-7.327 0-4.046-18.549-7.327-41.431-7.327-22.881 0-41.431 3.281-41.431 7.327 0 4.047 18.55 7.327 41.431 7.327z" stroke="#231F20" stroke-linecap="round" stroke-linejoin="round" stroke-miterlimit="10" stroke-width="0.33"></path><path d="M123.786 216.243l-2.14-1.263s-1.365.893-1.365 1.878c0 .986 1.055 1.632 1.055 1.632l2.45-2.247z" fill="#E1EBDC"></path><path d="M123.786 216.243l-2.14-1.263s-1.365.893-1.365 1.878c0 .986 1.055 1.632 1.055 1.632l2.45-2.247z" fill="#fff" fill-opacity="0.2"></path><path d="M123.786 216.243l-2.14-1.263s-1.365.893-1.365 1.878c0 .986 1.055 1.632 1.055 1.632l2.45-2.247z" stroke="#231F20" stroke-linecap="round" stroke-linejoin="round" stroke-miterlimit="10" stroke-width="0.33"></path><path d="M128.995 221.384s-2.48-1.17-5.24-5.141l-2.45 2.247c0 .031 2.667 1.94 7.69 2.894z" fill="#E1EBDC"></path><path d="M128.995 221.384s-2.48-1.17-5.24-5.141l-2.45 2.247c0 .031 2.667 1.94 7.69 2.894z" fill="#fff" fill-opacity="0.2"></path><path d="M128.995 221.384s-2.48-1.17-5.24-5.141l-2.45 2.247c0 .031 2.667 1.94 7.69 2.894z" stroke="#231F20" stroke-linecap="round" stroke-linejoin="round" stroke-miterlimit="10" stroke-width="0.33"></path><path d="M140.997 221.846l-4.155.892s4.031.462 4.745.555l-.59-1.447z" fill="#E1EBDC"></path><path d="M140.997 221.846l-4.155.892s4.031.462 4.745.555l-.59-1.447z" fill="#fff" fill-opacity="0.2"></path><path d="M140.997 221.846l-4.155.892s4.031.462 4.745.555l-.59-1.447z" stroke="#231F20" stroke-linecap="round" stroke-linejoin="round" stroke-miterlimit="10" stroke-width="0.33"></path><path d="M143.477 223.447c-.062 0-1.147-.462-2.481-1.601l.589 1.447 1.892.154z" fill="#E1EBDC"></path><path d="M143.477 223.447c-.062 0-1.147-.462-2.481-1.601l.589 1.447 1.892.154z" fill="#fff" fill-opacity="0.2"></path><path d="M143.477 223.447c-.062 0-1.147-.462-2.481-1.601l.589 1.447 1.892.154z" stroke="#231F20" stroke-linecap="round" stroke-linejoin="round" stroke-miterlimit="10" stroke-width="0.33"></path><path d="M159.23 224.216l2.481-1.447 2.853 1.447h-5.334z" fill="#E1EBDC"></path><path d="M159.23 224.216l2.481-1.447 2.853 1.447h-5.334z" fill="#fff" fill-opacity="0.2"></path><path d="M159.23 224.216l2.481-1.447 2.853 1.447h-5.334z" stroke="#231F20" stroke-linecap="round" stroke-linejoin="round" stroke-miterlimit="10" stroke-width="0.33"></path><path d="M186.584 222.738l-4.652-1.2-1.178 1.847c.031 0 5.117-.554 5.83-.647z" fill="#E1EBDC"></path><path d="M186.584 222.738l-4.652-1.2-1.178 1.847c.031 0 5.117-.554 5.83-.647z" fill="#fff" fill-opacity="0.2"></path><path d="M186.584 222.738l-4.652-1.2-1.178 1.847c.031 0 5.117-.554 5.83-.647z" stroke="#231F20" stroke-linecap="round" stroke-linejoin="round" stroke-miterlimit="10" stroke-width="0.33"></path><path d="M178.861 223.539s1.334-.585 3.101-2.001l-1.178 1.847-1.923.154z" fill="#E1EBDC"></path><path d="M178.861 223.539s1.334-.585 3.101-2.001l-1.178 1.847-1.923.154z" fill="#fff" fill-opacity="0.2"></path><path d="M178.861 223.539s1.334-.585 3.101-2.001l-1.178 1.847-1.923.154z" stroke="#231F20" stroke-linecap="round" stroke-linejoin="round" stroke-miterlimit="10" stroke-width="0.33"></path><path d="M202.12 218.521l-2.419-2.278 2.109-1.263s1.426.893 1.364 1.878c-.062.986-1.054 1.663-1.054 1.663z" fill="#E1EBDC"></path><path d="M202.12 218.521l-2.419-2.278 2.109-1.263s1.426.893 1.364 1.878c-.062.986-1.054 1.663-1.054 1.663z" fill="#fff" fill-opacity="0.2"></path><path d="M202.12 218.521l-2.419-2.278 2.109-1.263s1.426.893 1.364 1.878c-.062.986-1.054 1.663-1.054 1.663z" stroke="#231F20" stroke-linecap="round" stroke-linejoin="round" stroke-miterlimit="10" stroke-width="0.33"></path><path d="M195.297 221.168s3.132-2.001 4.403-4.925l2.419 2.278s-2.388 1.724-6.822 2.647z" fill="#E1EBDC"></path><path d="M195.297 221.168s3.132-2.001 4.403-4.925l2.419 2.278s-2.388 1.724-6.822 2.647z" fill="#fff" fill-opacity="0.2"></path><path d="M195.297 221.168s3.132-2.001 4.403-4.925l2.419 2.278s-2.388 1.724-6.822 2.647z" stroke="#231F20" stroke-linecap="round" stroke-linejoin="round" stroke-miterlimit="10" stroke-width="0.33"></path><path d="M161.712 211.009l-2.636-1.478h5.489l-2.853 1.478z" fill="#E1EBDC"></path><path d="M161.712 211.009l-2.636-1.478h5.489l-2.853 1.478z" fill="#fff" fill-opacity="0.2"></path><path d="M161.712 211.009l-2.636-1.478h5.489l-2.853 1.478z" stroke="#231F20" stroke-linecap="round" stroke-linejoin="round" stroke-miterlimit="10" stroke-width="0.33"></path><path d="M160.534 223.446s-.961-8.65-1.427-13.915l2.636 1.478v11.76l-1.209.677z" fill="#E1EBDC"></path><path d="M160.534 223.446s-.961-8.65-1.427-13.915l2.636 1.478v11.76l-1.209.677z" fill="#fff" fill-opacity="0.2"></path><path d="M160.534 223.446s-.961-8.65-1.427-13.915l2.636 1.478v11.76l-1.209.677z" stroke="#231F20" stroke-linecap="round" stroke-linejoin="round" stroke-miterlimit="10" stroke-width="0.33"></path><path d="M164.566 209.531s-1.086 9.944-1.644 13.854l-1.24-.616v-11.76l2.884-1.478z" fill="#E1EBDC"></path><path d="M164.566 209.531s-1.086 9.944-1.644 13.854l-1.24-.616v-11.76l2.884-1.478z" fill="#fff" fill-opacity="0.2"></path><path d="M164.566 209.531s-1.086 9.944-1.644 13.854l-1.24-.616v-11.76l2.884-1.478z" stroke="#231F20" stroke-linecap="round" stroke-linejoin="round" stroke-miterlimit="10" stroke-width="0.33"></path><path d="M138.393 210.793l4.062 1.878 1.023-2.401c-.031 0-3.752.369-5.085.523z" fill="#E1EBDC"></path><path d="M138.393 210.793l4.062 1.878 1.023-2.401c-.031 0-3.752.369-5.085.523z" fill="#fff" fill-opacity="0.2"></path><path d="M138.393 210.793l4.062 1.878 1.023-2.401c-.031 0-3.752.369-5.085.523z" stroke="#231F20" stroke-linecap="round" stroke-linejoin="round" stroke-miterlimit="10" stroke-width="0.33"></path><path d="M148.099 223.816s-3.938-3.91-5.675-11.145l-4.031-1.878s2.542 8.436 7.938 12.9c-.031 0 1.489.092 1.768.123z" fill="#E1EBDC"></path><path d="M148.099 223.816s-3.938-3.91-5.675-11.145l-4.031-1.878s2.542 8.436 7.938 12.9c-.031 0 1.489.092 1.768.123z" fill="#fff" fill-opacity="0.2"></path><path d="M148.099 223.816s-3.938-3.91-5.675-11.145l-4.031-1.878s2.542 8.436 7.938 12.9c-.031 0 1.489.092 1.768.123z" stroke="#231F20" stroke-linecap="round" stroke-linejoin="round" stroke-miterlimit="10" stroke-width="0.33"></path><path d="M143.447 210.27s1.706 9.113 5.613 13.576l-.961-.061s-3.846-3.879-5.675-11.144l1.023-2.371z" fill="#E1EBDC"></path><path d="M143.447 210.27s1.706 9.113 5.613 13.576l-.961-.061s-3.846-3.879-5.675-11.144l1.023-2.371z" fill="#fff" fill-opacity="0.2"></path><path d="M143.447 210.27s1.706 9.113 5.613 13.576l-.961-.061s-3.846-3.879-5.675-11.144l1.023-2.371z" stroke="#231F20" stroke-linecap="round" stroke-linejoin="round" stroke-miterlimit="10" stroke-width="0.33"></path><path d="M179.761 210.27s-.651 8.466-5.396 13.607l.962-.061s3.938-4.464 5.054-11.145l-.62-2.401z" fill="#E1EBDC"></path><path d="M179.761 210.27s-.651 8.466-5.396 13.607l.962-.061s3.938-4.464 5.054-11.145l-.62-2.401z" fill="#fff" fill-opacity="0.2"></path><path d="M179.761 210.27s-.651 8.466-5.396 13.607l.962-.061s3.938-4.464 5.054-11.145l-.62-2.401z" stroke="#231F20" stroke-linecap="round" stroke-linejoin="round" stroke-miterlimit="10" stroke-width="0.33"></path><path d="M184.848 210.763l-4.466 1.908-.62-2.401s2.791.216 5.086.493z" fill="#E1EBDC"></path><path d="M184.848 210.763l-4.466 1.908-.62-2.401s2.791.216 5.086.493z" fill="#fff" fill-opacity="0.2"></path><path d="M184.848 210.763l-4.466 1.908-.62-2.401s2.791.216 5.086.493z" stroke="#231F20" stroke-linecap="round" stroke-linejoin="round" stroke-miterlimit="10" stroke-width="0.33"></path><path d="M177.187 223.693s5.675-6.065 7.66-12.9l-4.466 1.909s-.434 5.049-5.055 11.145l1.861-.154z" fill="#E1EBDC"></path><path d="M177.187 223.693s5.675-6.065 7.66-12.9l-4.466 1.909s-.434 5.049-5.055 11.145l1.861-.154z" fill="#fff" fill-opacity="0.2"></path><path d="M177.187 223.693s5.675-6.065 7.66-12.9l-4.466 1.909s-.434 5.049-5.055 11.145l1.861-.154z" stroke="#231F20" stroke-linecap="round" stroke-linejoin="round" stroke-miterlimit="10" stroke-width="0.33"></path><g fill="#231F20" opacity="0.2"><path d="M123.879 253.154l12.963-30.416-9.056 28.292-.992-.154-2.915 2.278zM154.797 256.479l4.434-32.263-1.798 29.338-1.148-.03-1.488 2.955zM164.566 224.216l1.334 29.308 1.178-.062 1.582 3.263-4.094-32.509zM199.671 253.278l-13.087-30.54 9.055 28.323.962-.185 3.07 2.402z"></path></g><path d="M80.241 271.2c-1.786-.534-24.644-.356-28.573-.356-3.929 0-7.607 2.207-6.607 6.053 1.25 4.806 22.322 4.806 24.108 1.78 1.701-2.883 9.372-2.283 10.715-3.027 1.607-.89 2.143-3.916.357-4.45z" fill="#004022" opacity="0.1"></path><path d="M73.383 203.659h2.5s0 2.208.358 3.276c.357 1.068.214 3.489-1.429 4.415-1.643.925-6.072 0-6.072 0l4.643-7.691zM64.562 261.587l-1.214 1.424s.571 4.13 0 5.732l2.178 1.958 2.393-1.246s-1.214-3.952-.464-8.331c.786-4.45-2.893.463-2.893.463zM75.385 262.869l-4.25 1.495s.643 5.447 0 7.085l4.25.463.929-1.709c0-.036-1.393-4.13-.929-7.334z" fill="#E1EBDC" stroke="#000" stroke-linecap="round" stroke-linejoin="round" stroke-miterlimit="10" stroke-width="0.33"></path><path d="M63.563 267.71s-1.393.463-1.5.748c-.107.285.035 2.386 0 3.169-.036.783-.179 1.388-.036 1.673.143.285 2.25.819 3.965.89 1.714.072 1.964-.854 3.464-.961l.643.036-.107.961c-.036.32-.215.605.678.641 0 0 2.93.641 4.858 0 1.928-.641 5.464-.712 5.643-1.424 0 0 .714-1.78-.25-2.172-.964-.392-2.214-.641-2.893-.997-.643-.356-.929-.677-.893-1.139.072-.463.429-1.175-.643-1.246 0 0-.714-.285-.893-.143 0 0 .215.926.286 1.211 0 0-1.75 1.388-2.464 1.424-.715.071-1.858-.712-2.072-.962 0 0 .143-1.032-.429-.996 0 0-.285.64-.428.747 0 0-1.75-.783-2.25-1.495 0 0 .678-.997-.143-1.068l-.822-.143s.179 1.318.286 1.887c0 0-.5.641-1.643.392s-2.25-.107-2.357-1.033z" fill="#E1EBDC"></path><path d="M63.563 267.71s-1.393.463-1.5.748c-.107.285.035 2.386 0 3.169-.036.783-.179 1.388-.036 1.673.143.285 2.25.819 3.965.89 1.714.072 1.964-.854 3.464-.961l.643.036-.107.961c-.036.32-.215.605.678.641 0 0 2.93.641 4.858 0 1.928-.641 5.464-.712 5.643-1.424 0 0 .714-1.78-.25-2.172-.964-.392-2.214-.641-2.893-.997-.643-.356-.929-.677-.893-1.139.072-.463.429-1.175-.643-1.246 0 0-.714-.285-.893-.143 0 0 .215.926.286 1.211 0 0-1.75 1.388-2.464 1.424-.715.071-1.858-.712-2.072-.962 0 0 .143-1.032-.429-.996 0 0-.285.64-.428.747 0 0-1.75-.783-2.25-1.495 0 0 .678-.997-.143-1.068l-.822-.143s.179 1.318.286 1.887c0 0-.5.641-1.643.392s-2.25-.107-2.357-1.033z" fill="#fff" fill-opacity="0.2"></path><path d="M63.563 267.71s-1.393.463-1.5.748c-.107.285.035 2.386 0 3.169-.036.783-.179 1.388-.036 1.673.143.285 2.25.819 3.965.89 1.714.072 1.964-.854 3.464-.961l.643.036-.107.961c-.036.32-.215.605.678.641 0 0 2.93.641 4.858 0 1.928-.641 5.464-.712 5.643-1.424 0 0 .714-1.78-.25-2.172-.964-.392-2.214-.641-2.893-.997-.643-.356-.929-.677-.893-1.139.072-.463.429-1.175-.643-1.246 0 0-.714-.285-.893-.143 0 0 .215.926.286 1.211 0 0-1.75 1.388-2.464 1.424-.715.071-1.858-.712-2.072-.962 0 0 .143-1.032-.429-.996 0 0-.285.64-.428.747 0 0-1.75-.783-2.25-1.495 0 0 .678-.997-.143-1.068l-.822-.143s.179 1.318.286 1.887c0 0-.5.641-1.643.392s-2.25-.107-2.357-1.033z" stroke="#000" stroke-linecap="round" stroke-linejoin="round" stroke-miterlimit="10" stroke-width="0.33"></path><path d="M70.099 273.265s.035-2.564-.036-3.133c-.072-.57.5-.962.5-.962l-1-.534c.321.855-1.179 3.596-1.179 3.596-.357-.035-1.071.107-1.071.107-1.393.463-3.036.107-3.715-.107-.678-.213-1.535-.32-1.535-.32M78.063 270.239s.214 1.424-1.143 2.99c0 0-.607-.071-1.5.179M74.564 273.55s-.893.391-1.964.249c-1.072-.142-2.036-.178-2.5-.32M79.743 270.844s.464.925-.428 2.278c0 0 1.035.143 2.071-.178M67.92 267.817l-.25.534M76.314 268.352l-.357.605" stroke="#000" stroke-linecap="round" stroke-linejoin="round" stroke-miterlimit="10" stroke-width="0.33"></path><path d="M65.313 207.718s-1.036.89-.893 1.531c.107.641.893 1.389 3.107 2.136l3.893-.534s.572-1.388 1.143-1.744c.572-.356.857-1.852 1.572-1.959.714-.106 1.857-1.602 2.535-1.673.643-.071 1.143-1.424 1.143-1.816 0-.391-.464-1.887-2.393-1.638-1.928.25-10.107 5.697-10.107 5.697z" fill="#004022"></path><path d="M65.313 207.718s-1.036.89-.893 1.531c.107.641.893 1.389 3.107 2.136l3.893-.534s.572-1.388 1.143-1.744c.572-.356.857-1.852 1.572-1.959.714-.106 1.857-1.602 2.535-1.673.643-.071 1.143-1.424 1.143-1.816 0-.391-.464-1.887-2.393-1.638-1.928.25-10.107 5.697-10.107 5.697z" fill="#fff" fill-opacity="0.2"></path><path d="M65.313 207.718s-1.036.89-.893 1.531c.107.641.893 1.389 3.107 2.136l3.893-.534s.572-1.388 1.143-1.744c.572-.356.857-1.852 1.572-1.959.714-.106 1.857-1.602 2.535-1.673.643-.071 1.143-1.424 1.143-1.816 0-.391-.464-1.887-2.393-1.638-1.928.25-10.107 5.697-10.107 5.697z" stroke="#000" stroke-linecap="round" stroke-linejoin="round" stroke-miterlimit="10" stroke-width="0.33"></path><path d="M61.991 217.474c-.25 0-.678 0-1.143.178-.821.32-1.286.961-1.5 1.389-1.214 1.922-1.964 4.308-2.929 6.764-.428 1.068-1.25 3.027-.928 4.415.178.783.535 1.246.535 1.246.358.534.715.606 1.036 1.068.358.534.286.891.429 1.318.536 1.424 2.107 2.065 3.929 2.492.285.071.821 2.955.821 2.955s-.214 6.48-.357 8.545c-.143 2.065.143 6.551 0 7.584-.143 1.032-.679 6.764-.286 7.797.357 1.032 2.465.498 4.108 0 1.643-.498 2.607-.712 2.714-1.211l.893-4.13s.25 5.021.214 6.124c-.035 1.104.25 2.172 2.322 1.709 2.071-.463 5.107-1.353 5.357-1.958s-.285-5.269 0-6.587c.286-1.317-.143-5.839.072-7.014.214-1.175 1.464-9.292.643-11.535 0 0 .357-1.674 1.035-2.208.643-.498.429-1.673.429-1.673s1.893-2.492 2.214-3.739c.286-1.246.429-2.456-1.035-4.628 0 0-.75-3.667-.822-4.522-.071-.89-.071-3.952-.964-4.735-1.107-.997-3.215-1.46-3.215-1.46l-13.572 1.816z" fill="#238758" stroke="#000" stroke-linecap="round" stroke-linejoin="round" stroke-miterlimit="10" stroke-width="0.476"></path><mask height="30" id="mask0_6964_4993" maskUnits="userSpaceOnUse" style="mask-type:alpha" width="38" x="48" y="209"><path d="M48.098 209.961H85.957V238.8H48.098z" fill="#C4C4C4"></path></mask><g mask="url(#mask0_6964_4993)"><path d="M61.991 217.474c-.25 0-.678 0-1.143.178-.821.32-1.286.961-1.5 1.389-1.214 1.922-1.964 4.308-2.929 6.764-.428 1.068-1.25 3.027-.928 4.415.178.783.535 1.246.535 1.246.358.534.715.606 1.036 1.068.358.534.286.891.429 1.318.536 1.424 2.107 2.065 3.929 2.492.285.071.821 2.955.821 2.955s-.214 6.48-.357 8.545c-.143 2.065.143 6.551 0 7.584-.143 1.032-.679 6.764-.286 7.797.357 1.032 2.465.498 4.108 0 1.643-.498 2.607-.712 2.714-1.211l.893-4.13s.25 5.021.214 6.124c-.035 1.104.25 2.172 2.322 1.709 2.071-.463 5.107-1.353 5.357-1.958s-.285-5.269 0-6.587c.286-1.317-.143-5.839.072-7.014.214-1.175 1.464-9.292.643-11.535 0 0 .357-1.674 1.035-2.208.643-.498.429-1.673.429-1.673s1.893-2.492 2.214-3.739c.286-1.246.429-2.456-1.035-4.628 0 0-.75-3.667-.822-4.522-.071-.89-.071-3.952-.964-4.735-1.107-.997-3.215-1.46-3.215-1.46l-13.572 1.816z" fill="#238758" stroke="#000" stroke-linecap="round" stroke-linejoin="round" stroke-miterlimit="10" stroke-width="0.476"></path></g><path d="M66.17 243.5s2.107 1.247 2.107 1.852-.286 1.495 0 3.026c.286 1.531.322 4.629.572 6.302.25 1.673.357 3.276.357 3.276M70.42 242.681s.144 2.884 0 3.952c-.142 1.068.394 3.525.394 4.771s.357 5.804.357 5.804M71.135 258.846s-.357 4.628-.393 6.124M63.778 241.969s-.25 2.386-.358 3.739c-.107 1.353-.32 3.026-.25 3.667M63.135 251.476s.035 3.88 0 5.376c-.036 1.495-.68 3.881-.536 6.48M79.349 234.777s-.857.819-1.322 1.068c-.464.214-.071.926-.5 1.247" stroke="#000" stroke-linecap="round" stroke-linejoin="round" stroke-miterlimit="10" stroke-width="0.33"></path><path d="M64.17 211.421s1.679-.748 4.107-.855c2.429-.142 4.322-.89 5.715-.284 1.393.605 2.679 1.174 2.536 1.495-.143.32-.465 1.816-.465 1.816s2.536 1.459 2.858 1.815c.321.357-.215 1.745-.215 1.745s-.964-.783-1.678-1.032c0 0-2.75 4.486-2.965 6.301-.214 1.816-.25 7.726.036 9.186.322 1.46 2.107 4.237 2.286 4.807.178.569 1.964.783 1.964.783s.179-.498.536-.783c0 0 .643-.499.429-1.674l.678-.961s.072 1.745.143 1.994c.072.249.357 2.172-1.107 3.382 0 0-.322.784-.429.962-.071.178-2.607.462-3.5.569-.857.071-6.429 1.246-8.429.819-2-.427-4.322-1.424-5.107-1.638 0 0-1.215-2.35-1.179-2.955.036-.569.75-5.625.679-6.373-.072-.748-1.465-9.755-.679-13.957 0 0 0-.427.5-.818.5-.392 1.965-1.709 3.465-2.244.071.107-.608-1.958-.179-2.1z" fill="#3C946A"></path><path d="M64.17 211.421s1.679-.748 4.107-.855c2.429-.142 4.322-.89 5.715-.284 1.393.605 2.679 1.174 2.536 1.495-.143.32-.465 1.816-.465 1.816s2.536 1.459 2.858 1.815c.321.357-.215 1.745-.215 1.745s-.964-.783-1.678-1.032c0 0-2.75 4.486-2.965 6.301-.214 1.816-.25 7.726.036 9.186.322 1.46 2.107 4.237 2.286 4.807.178.569 1.964.783 1.964.783s.179-.498.536-.783c0 0 .643-.499.429-1.674l.678-.961s.072 1.745.143 1.994c.072.249.357 2.172-1.107 3.382 0 0-.322.784-.429.962-.071.178-2.607.462-3.5.569-.857.071-6.429 1.246-8.429.819-2-.427-4.322-1.424-5.107-1.638 0 0-1.215-2.35-1.179-2.955.036-.569.75-5.625.679-6.373-.072-.748-1.465-9.755-.679-13.957 0 0 0-.427.5-.818.5-.392 1.965-1.709 3.465-2.244.071.107-.608-1.958-.179-2.1z" fill="#fff" fill-opacity="0.1"></path><path d="M64.17 211.421s1.679-.748 4.107-.855c2.429-.142 4.322-.89 5.715-.284 1.393.605 2.679 1.174 2.536 1.495-.143.32-.465 1.816-.465 1.816s2.536 1.459 2.858 1.815c.321.357-.215 1.745-.215 1.745s-.964-.783-1.678-1.032c0 0-2.75 4.486-2.965 6.301-.214 1.816-.25 7.726.036 9.186.322 1.46 2.107 4.237 2.286 4.807.178.569 1.964.783 1.964.783s.179-.498.536-.783c0 0 .643-.499.429-1.674l.678-.961s.072 1.745.143 1.994c.072.249.357 2.172-1.107 3.382 0 0-.322.784-.429.962-.071.178-2.607.462-3.5.569-.857.071-6.429 1.246-8.429.819-2-.427-4.322-1.424-5.107-1.638 0 0-1.215-2.35-1.179-2.955.036-.569.75-5.625.679-6.373-.072-.748-1.465-9.755-.679-13.957 0 0 0-.427.5-.818.5-.392 1.965-1.709 3.465-2.244.071.107-.608-1.958-.179-2.1z" stroke="#000" stroke-linecap="round" stroke-linejoin="round" stroke-miterlimit="10" stroke-width="0.476"></path><path d="M69.242 214.02s-1.786-.142-2.858-.107c-1.071.036-1.714-.213-1.714-.213M74.635 213.557c-.107.071-2.607.463-4 .57M79.707 236.308s-.5 1.104-1.357.926M77.027 216.12s.822-.747 1.322-.605" stroke="#000" stroke-linecap="round" stroke-linejoin="round" stroke-miterlimit="10" stroke-width="0.33"></path><path d="M72.883 199.387s-1.75-1.959-6-.356c-4.25 1.602-3.179 6.159-3.179 6.159s-.964 2.029-.107 3.062 3.643 1.495 7.536-.285 6.072-6.017 5.25-7.37c-.82-1.353-2.428-1.46-3.5-1.21z" fill="#FD0" stroke="#000" stroke-linecap="round" stroke-linejoin="round" stroke-miterlimit="10" stroke-width="0.476"></path><path d="M72.883 199.387s1.428.89 1.357 1.994M63.705 205.19s.393 3.24 5.572 1.318c5.179-1.923 4.964-4.487 4.964-4.487" stroke="#000" stroke-linecap="round" stroke-linejoin="round" stroke-miterlimit="10" stroke-width="0.33"></path><g fill="#000" opacity="0.8" stroke="#000" stroke-width="0.33"><path d="M64.51 213.49l.075.018c.097.021.227.047.36.064.136.017.268.024.37.013a.422.422 0 00.115-.026l.013-.007-.003-.011a2.516 2.516 0 00-.064-.18 11.23 11.23 0 01-.037-.096c-.195-.426-.342-.725-.477-.936-.132-.206-.243-.309-.359-.362l-.007-.003.013 1.526zm0 0a6.738 6.738 0 01-.248-.852 7.404 7.404 0 01-.065-.773l.312 1.625zM75.633 212.645v.001l.007-.012a1.682 1.682 0 01.703-.683l.034-.016a1.72 1.72 0 00-.014.184.861.861 0 00-.052.141c-.023.079-.05.188-.085.327v.001a8.728 8.728 0 00-.158.62c-.024.106-.046.203-.068.288-.094.024-.22.049-.356.076a.549.549 0 01-.202-.001.09.09 0 01-.027-.01h-.001l-.003-.002c-.028-.043-.036-.111-.007-.254l.003-.016v-.017c0-.073.025-.293.226-.627zM61.634 234.884c.014-.159.023-.306.03-.435.011-.188.02-.335.041-.419m-.071.854l-.036 4.985a10.58 10.58 0 00-.643-1.567c-.041-.082-.081-.159-.12-.233-.196-.376-.35-.674-.38-1.12-.03-.3.016-.549.052-.748l.02-.106a5.66 5.66 0 01-1.572-.641 28.04 28.04 0 00-.08-.054c-.406-.268-.835-.551-1.17-1.086a2.763 2.763 0 01-.429-1.531 1.156 1.156 0 00-.214-.284c-.278-.315-.47-.494-.63-.645-.147-.139-.268-.252-.406-.424-.342-.403-.44-.833-.507-1.125a5.63 5.63 0 00-.029-.121c-.07-.451-.037-.834-.002-1.249l.002-.032m6.144 5.981l-.026.292c-.087.968-.111 1.24-.046 1.631l.02.109c.06.331.101.562.23.852.08.14.16.246.272.394.087.116.194.257.335.46l-.785-3.738zm.071-.854c0-.143 0-.392.072-.641m-.072.641l-.16-.041a.537.537 0 00-.005.022m.165.019h-.165v-.004-.015m.236-.622c.062-.492.204-.877.264-1.043l.022-.061c.21-.603.07-1.265-.14-2.273-.114-.541-.248-1.181-.36-1.964a17.572 17.572 0 00-.026-.194c-.039-.284-.096-.699-.152-1.408m.392 6.943l-.158-.046-.004.013m.163.033l-.164-.021.001-.012m-.23-6.91s-.608-5.269-.429-8.83c.036-.712.036-.819.036-.819m.393 9.649l-.165.013a.03.03 0 000 .003m.165-.016l-.164.019h0v-.003m-.23-9.665a7.14 7.14 0 01.086-.774 1.346 1.346 0 00-.063.089 3.1 3.1 0 00-.152.271m.13.414h-.165v0h.165zm-.13-.414a9.713 9.713 0 01.042-.317c.007-.045.011-.079.014-.106-.09.126-.199.328-.283.517a3.959 3.959 0 00-.286 1.495 5.403 5.403 0 00-.643.641c-.286.356-.464.677-.679 1.104a34.34 34.34 0 00-.821 1.638c-.341.777-.5 1.239-.736 1.929-.11.322-.237.693-.407 1.168-.2.543-.401 1.016-.565 1.403l-.114.27a10.112 10.112 0 00-.571 1.638c-.214.356-.286.677-.322 1.14m5.37-12.52a4.184 4.184 0 00-.074.158 3.8 3.8 0 00-.273 1.431v.08l-.062.049a5.206 5.206 0 00-.62.618c-.273.342-.445.65-.657 1.072l-.002.003h0c-.391.745-.569 1.099-.817 1.629a20.812 20.812 0 00-.727 1.909c-.11.322-.238.695-.41 1.176l-.001.001h0a31.49 31.49 0 01-.568 1.412l-.113.268-.002.004h0a9.939 9.939 0 00-.562 1.61l-.006.024-.013.021c-.196.326-.263.619-.298 1.067v.001l-.002.027c-.035.416-.066.781 0 1.209l.028.119c.067.293.157.682.471 1.053l.003.003h0c.13.162.243.269.393.409l.015.015c.158.148.348.329.62.634.116.118.197.237.24.324l.018.035v.039c0 .308.035.875.402 1.442l.002.002h0c.315.503.717.769 1.124 1.038l.074.049c.346.207.83.448 1.523.62l.148.037-.025.151a6.186 6.186 0 01-.02.113c-.036.199-.077.423-.05.698v.005h0c.028.41.165.674.36 1.048l.123.242c.174.346.415.859.626 1.507m-.867-23.352c-.014.116-.026.25-.035.405h0v.009h0v.024l-.005.112c-.004.115-.013.319-.03.675-.09 1.791.017 4.006.147 5.77a90.735 90.735 0 00.256 2.852l.019.174.005.045.001.012v.001m-5.729 2.441h0zm6.238 10.832l16.538.396a.618.618 0 00.03-.01c.013-.004.031-.01.049-.014a.256.256 0 01.075-.012c.007 0 .01 0 .037-.009l.004-.001a.292.292 0 01.027-.009c.093-.194.187-.418.283-.652-4.159.487-6.824.973-8.668 1.423-.823.214-2.106.545-3.61.215h0-.004l-.012-.003-.045-.01-.17-.044a10.436 10.436 0 01-.647-.206 17.514 17.514 0 01-2.378-1.069 2.996 2.996 0 01-.273-.154l-.078-.052-.018-.014a.435.435 0 01-.124-.105 2.55 2.55 0 01-.035-.044l-.01-.013a.057.057 0 01-.003-.003l-.02-.019-.011-.024c-.065-.13-.2-.333-.38-.583l-.001-.002h0c-.14-.201-.244-.34-.332-.456l-.035-.047a3.328 3.328 0 01-.248-.364l-.004-.007-.004-.008c-.137-.308-.182-.559-.241-.888a30.85 30.85 0 00-.02-.111v-.002c-.07-.413-.043-.708.042-1.659l.027-.306h0c.015-.156.023-.3.03-.428l.006-.088c.008-.13.016-.254.035-.342m.188 5.724c.049.015.095.033.138.049l.004.001c.073.028.136.051.196.066l.018.004.016.008a.312.312 0 00.074.023l.004.001c.034.009.084.022.136.048l.113.056-.024.124a2.6 2.6 0 00-.034.235v.002a2.986 2.986 0 01-.036.251l-.006.082a18.47 18.47 0 00-.064 1.355v.013h0a95.434 95.434 0 00-.25 5.722c-.036 2.418 0 4.694.071 6.864v.026c-.144 1.137-.25 2.097-.322 2.807-.03.356-.059.674-.085.962-.097 1.075-.156 1.736-.129 2.398v.001c.018.46.054 1.037.085 1.499l.04.578.013.17.002.022.005.008.01.016c.023.035.057.083.101.134a.95.95 0 00.35.272c.08.027.17.042.246.051a140.194 140.194 0 01.063-2.52l.004-.097.002-.022v-.003c0-.109.01-.192.043-.478l.007-.057c.04-.342.111-.955.236-2.147v-.001l.157-1.468c.021-.207.021-.216.021-.222V256.558h0c.036-.652.027-1.056.009-1.547a57.905 57.905 0 00-.007-.181c-.017-.457-.038-1.014-.038-1.895 0-.354.008-.505.017-.663l.001-.031c.01-.166.018-.359.018-.837 0-.672-.006-1.136-.01-1.513-.007-.575-.012-.949.01-1.552 0-.197.03-.511.157-1.886l.058-.617c.072-.859.215-2.037.393-3.425l.019-.144h.145c.099 0 .187.01.265.019h.003c.082.009.153.017.232.017v0h.014l.019.002a.199.199 0 01.127.075l.074.034a4.27 4.27 0 001.522.352h.002c.734.034 2.69-.159 4.796-.396.85-.095 1.721-.197 2.54-.294 1.201-.14 2.29-.268 3.033-.342h.002a55.815 55.815 0 011.138-.091c.192-.014.36-.026.498-.038V240.299l.048-.049a.47.47 0 01.114-.08.374.374 0 01.134-.039l-16.538-.396zm-.509-13.273c.058.712.115 1.132.154 1.415l.026.192h0v.002c.113.789.249 1.438.362 1.981.049.232.093.444.13.639.125.661.16 1.121.015 1.54v.002a4.843 4.843 0 00-.291 1.123m0 0a2.445 2.445 0 00-.075.655m1.772 11.839c.072-.854.215-2.029.393-3.418l-.449 4.021.056-.603zm-2.323-29.866a.136.136 0 01-.054-.049c.055-.072.1-.112.127-.099.028.014.029.065.017.159a.134.134 0 01-.09-.011zM71.093 230.62l.01-.004.008-.006a1.12 1.12 0 01.166-.085.739.739 0 01-.017.153c-.03.161-.105.38-.223.634a6.195 6.195 0 01-1.128 1.64.843.843 0 01-.105.094c-.028.02-.062.041-.12.08l-.083.053c-.22.144-.652.43-1.6 1.108v-.001l-.006.006c-.349.278-.601.43-.94.462a.88.88 0 01-.351-.074l-.107-.04c-.147-.057-.35-.135-.664-.234h0l-.002-.001a15.775 15.775 0 00-.648-.181l-.172-.047a1.488 1.488 0 01-.429-.183h0l-.011-.006a1.29 1.29 0 01-.636-.663h0l-.004-.011a1.078 1.078 0 01-.079-.27c-.02-.142 0-.239.047-.287.018-.017.07-.04.194-.032.117.008.255.04.4.076.727.189 1.4.295 1.697.342l.102.016v.001h.006c.773.097 1.538-.25 2.115-.626a5.787 5.787 0 001.1-.923c.278-.293.49-.47.707-.607.22-.139.45-.241.773-.384zm.178-.142v-.001.001zM79.84 233.877l-.068.069.026.093c.066.231.135.6.067 1.145h0v.005c-.037.393-.106 1.009-.592 1.461h0l-.004.004a1.73 1.73 0 01-.955.484c-.129-.016-.25-.041-.378-.066l-.003-.001c-.132-.026-.27-.054-.419-.072-.25-.036-.596-.103-.842-.317v-.001a.977.977 0 01-.243-.32 5.188 5.188 0 01-.133-.287c-.033-.075-.07-.16-.116-.257a7.611 7.611 0 00-.615-1.192c-.103-.207-.207-.449-.314-.696l-.007-.016-.01-.014a9.775 9.775 0 01-.876-1.574c-.316-.734-.667-1.784-.808-3.366v-.001c-.16-1.675-.054-3.353.128-4.607.09-.627.2-1.145.303-1.5.022-.076.043-.143.063-.201.01.079.02.173.03.281.04.445.075 1.117.11 2.025.01.336.016.622.021.884.02.843.032 1.42.087 2.536h0v.002c.072 1.158.134 1.841.198 2.267.064.425.13.608.215.758.443.844 1.139 1.572 1.863 2.15h0l.006.004c.534.391.853.596 1.332.637.723.077 1.39-.293 1.877-.63.152-.105.298-.216.421-.309l.132-.1a3.07 3.07 0 01-.495.722zm-5.673-11.493l-.002.002.002-.002zM77.125 216.217h0l.005-.008c.202-.318.441-.537.662-.655.225-.12.406-.125.518-.069.12.06.209.196.271.371.05.139.075.275.093.374l.01.057c.027.28-.018.534-.07.697a6.888 6.888 0 01-.306.08h0l-.012.004-.103.029c-.15.041-.421.116-.692.223-.12.048-.224.092-.317.131-.337.14-.536.223-.843.249l-.102-.001.018-.023.015-.019.065-.084.006-.008.005-.009c.063-.11.088-.163.115-.221l.016-.036a5.95 5.95 0 01.28-.508c.1-.168.22-.371.366-.574z" opacity="0.21"></path><path d="M64.636 263.741c-.372.093-.72.16-1.041.2.017.251.039.507.06.765v.001c.023.258.045.517.063.772a6.395 6.395 0 001.203-.137l.01-.002h0c.858-.131 1.562-.387 2.146-.624v-2.047l.125-.032a1.66 1.66 0 00.52-.226l.006-.005v.001c.12-.072.218-.14.306-.202l.073-.05c.075-.188.2-.51.297-.86.125-.477.178-.805.251-1.256.03-.18.061-.38.103-.617l.002-.012v.001c.027-.106.053-.238.085-.394l.03-.147c.044-.219.099-.472.172-.744l.324.033.035.597c.024.396.048.792.072 1.22v.003h0l.107 3.131v.001c.035.629.07 1.264.072 1.899.038.09.157.287.359.43l.006.004.005.005a.932.932 0 00.306.173c-.05-.218-.098-.478-.147-.768-.145-.868-.145-1.555-.145-1.772 0-.635-.035-1.262-.076-1.894a235.53 235.53 0 00-.017-.265c-.035-.544-.07-1.091-.085-1.645m-5.227 4.463l5.879 1.934c-.055-.229-.11-.517-.166-.848-.143-.855-.143-1.531-.143-1.745 0-.73-.046-1.45-.093-2.17-.035-.544-.07-1.088-.086-1.639-.072-2.366-.325-3.839-.549-5.145-.221-1.289-.415-2.415-.38-4.077l-.164-.003h0c-.036 1.677.16 2.817.381 4.105l.005.03c.223 1.296.471 2.756.543 5.095m-5.227 4.463c.526-.116 1.006-.28 1.449-.431l.316-.107.105-.035.007-.11c.143-2.061.321-3.696.464-4.833v-.001l.086-.741c.327-2.798.443-3.791.343-5.483-.016-.299-.033-.455-.068-.775-.04-.368-.104-.953-.218-2.221h0v-.002c-.17-1.619-.274-2.983-.346-3.909l-.01-.146-.003-.03-.013-.027c-.267-.567-.385-.901-.43-1.097a1.162 1.162 0 01-.019-.097m-1.663 20.045l1.663-20.045m3.563 15.582v-.001l.165-.004-.165.005s0 0 0 0zm-1.53-13.603c.319 1.416.47 2.512.54 3.253a14.005 14.005 0 01.062 1.051v.068l-1.867-5.777v-.001m1.264 1.406v.002l.16-.041-.16.037v.002zm0 0a1.242 1.242 0 00-.084-.229l-.008-.016-.002-.004h0m0 0l.147-.074-.147.074h0zm0 0c-.095-.19-.187-.281-.29-.385-.173-.172-.49-.453-.88-.772m0 0c-.27-.215-.487-.388-.65-.499a1.61 1.61 0 00-.118-.074m.767.573l-.767-.573m.943 8.313c.099 1.677-.016 2.656-.343 5.46l-.086.736a87.346 87.346 0 00-.464 4.842 40.71 40.71 0 00-.321.108 13.35 13.35 0 01-1.43.426l2.644-11.572zM73.388 265.556v.001l.01-.003c.274-.087.546-.168.815-.249.324-.097.645-.193.963-.296.049.39.078.78.107 1.175-.434.194-.929.386-1.514.548-.84.226-1.592.333-2.226.376l-.012-.156v-.003a3.716 3.716 0 01-.018-.307c0-.131-.01-.252-.018-.366v-.002l-.015-.219a86.96 86.96 0 011.908-.499zM70.58 270.6v-.001a2.783 2.783 0 00-.15-.457.738.738 0 00-.097-.163.188.188 0 00-.038-.036.203.203 0 00-.08.056l-.282.281v-.398c0-.055.012-.124.026-.184.015-.063.034-.13.053-.188l.005-.014v.001a.888.888 0 01.21-.297 4.82 4.82 0 01-.755-.425c-.522-.313-.912-.659-1.223-.936a1.18 1.18 0 01-.047-.041l-.095-.084.057-.113c.066-.131.13-.292.163-.519l.001-.009h0c.035-.172.017-.235-.026-.278v-.001c-.005-.005-.013-.013-.084-.013l-.053.001c-.074.001-.18.004-.302-.011l-.007-.001h0a2.453 2.453 0 01-.302-.073c.092.554.18 1.108.243 1.635l.014.115-.104.052a.102.102 0 00-.012.008c.324.364.455.691.523.896l.004.012h0c.042.169.05.326.008.612-.042.279-.133.695-.293 1.387l2.644-.814zm0 0c.194.755.256 1.262.305 1.712l.01.092c.044.416.085.801.222 1.296h0l.003.009c.054.163.114.32.168.462l.007.019c.052.136.098.257.132.363.038.114.058.197.061.255a.223.223 0 010 .033l-.907-4.241zm.906 4.256v-.002.002zM62.227 271.128h0v-.005a54.1 54.1 0 01-.038-1.551c.118.589.185.944.281 1.649.067.568.255 1.369.723 2.403a5.091 5.091 0 01-.703-.259 5.94 5.94 0 01-.298-.156c.001-.34.01-.673.017-1.004v-.014c.01-.355.018-.709.018-1.063zM75.87 268.436a.343.343 0 00.03-.093.581.581 0 00.006-.095 1.067 1.067 0 01.058-.1s0 0 0 0l.02-.019.011-.024a.155.155 0 01.027-.042.152.152 0 01.042-.027h0l-.194.4zm0 0v.022a.5.5 0 00.002.04l.034.034V268.623l.006.013c.01.02.016.041.02.053l.001.002.006.017c.026.028.047.061.06.081l.004.005.023.033.007.01a.148.148 0 01.003.003l.036.035s0 0 0 0l.01.008a1.856 1.856 0 00.125.068c.032.016.065.019.141.019.076 0 .109-.003.14-.019.026-.012.045-.025.072-.043l.002-.001a.779.779 0 01.064-.04l.043-.064a.5.5 0 00.05-.202v-.215a.712.712 0 01-.027-.082l-.003-.01-.004-.016-.815.158zM71.135 204.839v.001l.003-.002c.402-.209.91-.419 1.338-.549.215-.066.402-.109.542-.124a.73.73 0 01.118-.005c-.03.06-.086.142-.17.245a6.247 6.247 0 01-.805.783 12.052 12.052 0 01-2.879 1.773h0c-1.863.806-2.97.659-3.256.596h0l-.008-.001h0l-.001-.001-.008-.001a4.19 4.19 0 01-.6-.177 4.764 4.764 0 01-1.315-.748h0c-.28-.226-.402-.379-.454-.475-.045-.083-.033-.117-.03-.127v-.001l.005-.012.002-.013a.292.292 0 01.102-.166.438.438 0 01.168-.093l.101-.025.02-.103c.033-.162.234-.886.92-1.277h0l.005-.003c.753-.457 1.684-.298 2.287.104.5.332.733.763.833.995l.03.069.07.023a.97.97 0 00.253.039c.089.005.19.005.295.005h.004c.228 0 .744-.038 1.368-.22h0l.001-.001c.337-.103.563-.232.78-.355.092-.053.184-.105.281-.154z" opacity="0.21"></path></g><defs><clipPath id="clip0_6964_4993"><path d="M0 0H184V183.529H0z" fill="#fff" transform="translate(69.96 14.682)"></path></clipPath></defs></svg>
